<?xml version="1.0" standalone="no"?>
<!DOCTYPE svg PUBLIC "-//W3C//DTD SVG 20010904//EN"
 "http://www.w3.org/TR/2001/REC-SVG-20010904/DTD/svg10.dtd">
<svg version="1.0" xmlns="http://www.w3.org/2000/svg"
 width="1024.000000pt" height="1024.000000pt" viewBox="0 0 1024.000000 1024.000000"
 preserveAspectRatio="xMidYMid meet">
<metadata>
Created by potrace 1.14, written by Peter Selinger 2001-2017
</metadata>
<g transform="translate(0.000000,1024.000000) scale(0.100000,-0.100000)"
fill="#000000" stroke="none">
<path d="M0 5120 l0 -5120 5120 0 5120 0 0 5120 0 5120 -5120 0 -5120 0 0
-5120z m5693 3388 c4 -248 7 -713 7 -1033 l0 -581 -282 -389 c-156 -213 -287
-388 -293 -389 -5 0 -136 173 -290 384 l-280 384 -3 -483 c-2 -405 -4 -482
-16 -478 -8 3 -177 58 -377 122 -200 64 -405 130 -456 146 l-92 30 -606 836
c-333 460 -604 837 -603 838 2 1 209 152 461 335 447 324 459 332 477 314 10
-10 280 -379 600 -819 320 -440 588 -806 596 -814 11 -12 12 154 7 1017 l-6
1032 575 0 575 0 6 -452z m-2932 -2019 l845 -274 283 -388 c156 -214 280 -392
275 -397 -12 -10 -885 -300 -905 -300 -20 0 -1941 629 -1951 639 -6 5 297 965
336 1067 6 14 -57 34 1117 -347z m5199 -1691 c531 -171 969 -314 973 -318 7
-6 -327 -1057 -342 -1072 -3 -4 -446 135 -983 310 l-977 317 -284 390 c-156
215 -279 392 -273 395 40 17 885 288 901 289 11 1 454 -139 985 -311z m-1328
-776 c14 -15 1198 -1653 1201 -1661 1 -5 -200 -156 -448 -336 -247 -180 -455
-331 -461 -336 -6 -5 -228 292 -615 826 l-604 835 -3 -1035 -2 -1035 -575 0
-575 0 0 1039 0 1039 276 378 c151 209 281 385 288 392 10 10 66 -60 297 -377
l284 -391 3 484 2 483 463 -149 c254 -82 465 -152 469 -156z"/>
</g>
</svg>
